<svg xmlns="http://www.w3.org/2000/svg" viewBox="0 0 137.3 137.2"><path d="M71.6 69c-.1 1.7-.3 3.2-.3 4.8 0 3.9-.8 7.5-2.5 11-.6 1.2-1.6 2.3-2.6 3.2-2.6 2.5-5 5-7.9 7.1-1.4 1-2.5 1.9-3 3.6-.5 1.6-2 2.5-3.3 3.3-1.3.8-2.6 1.5-4 2.2-.7.4-1.5.8-2.3 1-3.3 1-5.2-1-6.5-3.8-.5-1.1-1-2-2.1-2.7-4.7-3-7-7.7-8.9-12.7-.9-2.5-1.9-4.9-3-7.3-1.9-4.1-2.8-8.4-3.2-12.9 0-.8-.5-1.6-1-2.4-1.4-2.4-2.6-5-2.8-7.8-.1-2.2.5-4.1 2-5.8 1.7-1.9 3.1-4.1 4.6-6.1l3.3-4.8c.4-.5.7-1.1.9-1.7.5-1.2 1.2-1.9 2.7-2 1.1-.1 2.1-1 3.2-1.2 2.4-.4 4.7-.5 7.1-.6 1.1 0 1.3 1.1 1.4 2 .1.9 0 1.9 0 2.8 2.1.6 2.3.9 2.4 3 0 1.1-.2 2.2.5 3.2.2.3.2.8.1 1.2-.7 1.6-.4 3.2-.6 4.8-.3 2-1.8 3.5-3.5 4.4-.7.4-1.9-.1-3.1-.3-1.4 1.6-3 3.4-4.6 5.2 1.7 2.8 7.8 12.2 10.5 14-.5-2.2-1-4.4-1.4-6.5-.2-.8-.4-1.6-.5-2.5-.6-3.8 1.9-6.1 4.5-7.8 1.7-1.2 2.3-2.2 2.2-4.2-.2-2.9-.3-5.8-.1-8.7.1-1.4.6-2.8 1.2-4 .9-1.7 2.2-3.2 3.4-4.8 1.4-1.9 3.6-2.1 5.8-2.4 4.5-.5 8.3-2.1 10.9-6.1.5-.8 1.4-1.3 2.2-2.1-.5-.5-1.1-1.1-1.7-1.5-3.5-2.5-6.6-5.5-9.2-8.9-.7-.9-1.2-2.1-1.8-3.3h2c.2.5.4 1.1.7 1.5.2.2.6.5.8.5.2-.1.5-.5.5-.8.1-.5 0-1 0-1.5.1 0 .3-.1.4-.1.2.3.5.6.5.9-.2 1.9 1 2.5 2.4 3 .5.2 1.3.7 1.2.9-.2.9-1 .6-1.7.5-.4-.1-.8-.1-1.3 0 1.4 1.3 2.7 2.5 4.2 3.9.2-.3.3-.5.5-.8-.5-.2-1.1-.3-1.5-.6-.2-.3-.2-.8-.3-1.3.4-.1.9-.3 1.2-.2 1.8.9 3.6.5 5.4.5.4 0 .7-.6 1.2-.8.3-.2.6-.2 1-.2.1.3.2.7.1 1-.4 1-1.1 1.7-2.2 1.7s-2.2 0-3.4.2c1 .1 2 .3 3 .4 0 .1 0 .3.1.4-.9.4-1.7.8-2.6 1.2.9.9 1.7 1.8 2.5 2.7.6.6 1.4.8 2.3.6 2.1-.5 3.7-1.6 5-3.2 1.9-2.3 4-4.6 5.9-6.9.7-.9 1.6-1 2.9-.6-1.5 1.7-2.9 3.4-4.4 5.1-1.4 1.7-2.9 3.4-4.3 5.1.4.8 2 1 1.3 2.3h-.4c-2.2-1.9-4.3-.1-6.4.2-.2 0-.4.5-.3.8.4 2.1.9 4.3 1.4 6.4.1.3.8.6 1.3.7.7.1 1.4-.1 2.1-.2.3 1.2-.1 1.5-2.8 1.9.4 1.8.7 3.6 1.1 5.4.2 1.2.4 2.4.8 3.5.4 1.2 1 2.4 1.8 3.4 1.2 1.5 2.5 2.9 3.8 4.3 2.7 2.9 5.9 4.9 9.5 6.3 5.2 2.1 10.5 4 15.3 6.9.2.1.3.2.7.4-.3-3.6-1.8-6.5-3.4-9.5-1.6-2.9-3.4-5.7-6-7.8 3.9 1.4 6.2 4.6 8.2 7.9 2 3.4 3.1 7.1 3.4 11.4 1.8-.9 3.2-1.7 4.8-2.6-1.7-2-4-3.4-4.5-6.1 1.7 1.4 3.5 2.7 5.2 4.1.7.6 1.2.9 2 .3.1-.1.3-.2.4-.2 2.4-.5 3.3-2.3 3.8-4.4.3-1.3.6-2.5.9-3.8 1.3.9 1.4.9.8 2.2-.7 1.7-1 3.5-.7 5.4.1.3.1.7.1.8-1.5.5-2.9 1-4.3 1.4v.6c1.3.3 2.5.7 3.8.7 1.4 0 2.1.5 2.5 1.9-1.9.1-3.9.5-5.6-.5-1.9-1.1-3.6-1.4-5.5.2-.9.8-2.2 1.1-3.4 1.4-1.3.4-1.3 1.5-1.7 2.4-1 2.1-1.6 4.6-3.1 6.3-3.2 3.4-7.4 4.7-12.1 4-2.8-.4-5.6-.7-8.4-1.5-1.5-.4-3-.3-4.7-.4 3.9 3.8 8.4 6.7 11.1 11.7-.5-.1-.8-.2-1-.2-.2-.1-.3-.2-.5-.2-.8 3.4-2.6 6-5.3 8-3.3 2.4-6.8 4.7-10.1 7.1-1.2.8-2.3 1.8-3.4 2.7 5.8 2.8 10.6 7 15.5 11l.6.6c1.3 1.3 1.3 1.3.2 2.5-4-3.1-7.9-6.3-11.9-9.2-1.7-1.2-3.7-2.1-5.5-3-.3-.2-1 0-1.3.2-2.2 2.8-5.1 5.1-6.7 8.4-1 2-2 4.1-3.1 6.3-.3 0-.8 0-1.7-.1.3-1 .5-1.8.8-2.6.3-.7.7-1.3 1-1.9 1.5-4.1 4.6-7.1 7.2-10.4 2.8-3.4 6.5-5.5 10-8.1 3.2-2.3 6.8-4.2 9.4-7.2 1.3-1.6 2.4-3.3 2.3-5.5 0-.3-.1-.6-.3-.8-1.2-1.1-2.5-2.2-3.7-3.4-2.1-1.8-4.3-3.6-6.3-5.6-1.5-1.5-2.8-3.4-4.2-5-1.7-2.1-3.7-4.3-5.9-6.8zm-7.7-16.3c.1.1.1.2.2.4-.4.3-.8.7-1.2.9-3.3 1.8-7.2 1.8-10.7 2.9-1.1.3-2.3.6-3.3 1.3-2.9 1.9-5.1 4.4-4 8.3.7 2.5 1.6 5 2.3 7.5.3 1.3 1 2.1 1.9 3 2.3 2.3 4 4.9 4.1 8.3.1 2.1.1 4.2 0 6.4 0 .8-.3 1.5-.4 2.3-.4-1.9-.6-3.8-.7-5.6-.1-1.5-.6-2.7-1.8-3.6-.8-.6-1.4-1.3-2-2-.3-.3-.2-.9-.3-1.3.5.1 1.2 0 1.5.3.5.4.8 1 1.2 1.6-.7-2.6-2.2-4.6-4.4-6.1-2.9-1.9-5.2-4.2-7.1-7.1-1.4-2.2-2.9-4.3-4.4-6.4-1.1-1.5-1.8-3.5-3.9-4.1 0 0 0-.1-.1-.3 1.6.2 2.5-.7 3.4-1.8.7-.9 1.5-1.6 2.2-2.5.6-.8 1.1-1.7 1.5-2.6.3-.7.3-1.5.5-2.2.2-.5.6-1 1.1-1.7.3 1.1.3 2 .7 2.3.4.3 1.2-.2 1.9-.3-.3.4-.8.7-1.1 1-.3.2-.7.5-.7.8 0 .3.4.7.7.9.3.1.9.1 1.1-.1.7-.7 1.4-1.5 1.9-2.3.5-.7.3-1.2-.5-1.6-1.3-.6-2.6-1.3-3.7-2.1-1.5-1.1-1.8-1.1-3.4 0-.2.2-.5.1-.8.2.1-.3 0-.6.2-.8 1.1-1.5 3.5-1.8 5.2-.8.9.6 1.9 1.1 3.2 1.9.2-.9.7-2 .5-2.2-1.2-1-2.5-2.2-3.9-2.4-2.1-.2-4.5-.3-6.6.8-.2.1-.6 0-1 .1.9-1.3 2-2.1 3.4-2.1 2.3 0 4.5.2 6.8.3h1c0-.4.1-1-.2-1.2-.3-.3-.9-.5-1.3-.5-2.7.1-5.3.3-8 .5-.9.1-1.8.1-2.7.2 0-.2-.1-.4-.1-.5 1-.4 1.9-1 2.9-1.1 2-.3 4-.5 6.1-.6 1 0 1.2-.6 1.2-1.3 0-.8.3-1.8-1-2.1-1.7-.4-3.3 0-4.8.5-1.6.5-3.2 1-4.8 1.6-.3.1-.6.5-.7.8-.6 1.7-1.8 3-3.1 4.2-.3.3-.5.8-.8 1.3.1.1.2.2.3.2.9-.5 1.8-1 2.7-1.6.1.1.2.3.3.4-2.2 2.6-4.4 5.2-6.6 7.7l.3.3c1.5-1.1 3.1-2.2 4.6-3.2.1.3.1.5 0 .6-.2.2-.4.4-.5.6-1.6 2-3.7 3.1-5.9 4.2-2 1-2.8 2.5-1.9 4.5 1.7 4 3.5 8 5.3 12 0 .1.1.1.1.2 1.3 2 2.7 4 3.9 6.1 1.1 2 2.1 4 2 6.4 0 .8.4 1.7.7 2.5 1.3 3.2 3 6.1 5.3 8.6 1.4 1.6 2.4 3.5 2.6 5.7.1.8.3 1.6.7 2.3 1.6 2.7 2.6 3.4 5.4 2 1.3-.6 2.5-1.3 3.7-2 1.9-1.1 3.4-2.4 4.2-4.7 1.3-3.8 3.4-7.1 6.2-10 .4-.4.9-.7 1.3-1.1.1.1.3.2.4.3-1.4 2.5-2.9 5.1-4.3 7.6.4-.1.7-.2.9-.4 1.2-1.2 2.5-2.3 3.7-3.6 1.5-1.5 3.2-3 4.4-4.7 1.8-2.6 2.5-5.8 2.5-8.9.1-4.8 1.2-9.4 1.9-14.1.1-.4.4-.7.7-1.1.1 0 .2.1.3.1 0 .9.1 1.7 0 2.6-.4 3.7 1.7 6.5 3.8 9.1 1.2 1.5 2.6 2.8 3.9 4.3 1.1 1.3 2.6 2 4.2 2.3.4.1 1-.2 1.3-.5.2-.2-.1-.9-.3-1.2-1.2-1.5-2.6-2.8-3.8-4.3-1.3-1.7-2.1-3.6-1.7-5.8.5-2.8.4-5.4-2.5-7-.1 0-.1-.1-.2-.2-2.6-2.1-5.3-1.8-7.3.7-.8 1-1.4 2.1-2 3.2-.6 1-1.1 2-1.8 3.3-.4-2.4 2.7-7.1 5.9-9.5-.8-.8-1.6-.7-2.4 0-.5.5-1 .9-1.5 1.3-.3.2-.7.4-1.1.6-.1-.1-.2-.2-.3-.4.4-.6.8-1.3 1.3-1.9.8-1.1.6-2-.7-2.6-.6-.2-1.2-.5-1.8-.8 0-.2 0-.4.1-.5.7-.1 1.5-.1 2.3-.2-1.1-1.6-1.3-3.4-1.2-5.2 0-.7.2-1.3 1.3-1-.7 2.6.4 4.8 1.8 6.9.4.6 1.2 1.1 1.9 1.4 2 .9 4.1 1.7 6.1 2.6.6.3 1.1.8 1.9 1.4-.2-1.6.1-2.8 1.2-4.2.9 2.2.5 4.3 1.1 6.1.8-2.9 1-5.9 0-8.8-.7-2-1.7-3.8-2.3-5.8-1-3.3-1.7-6.6-2.5-9.9-.2-.8-.5-1.3-1.3-1.5-3.3-.7-6.6-1.3-9.8-2-.3-.1-.6 0-.9.1-1.7.4-3.5 1-5.2 1.2-2 .2-3.6.9-4.6 2.7-.1.2-.3.5-.5.7-2.3 2.6-3.5 5.5-3.1 9.1.3 2.6.1 5.3.1 8 2.5-.5 4.8-1 7-1.4V49c.1 0 .2 0 .3-.1.1.4.3.8.4 1.2.2.5.2 1 .4 1.5.6 1.6 1.1 1.9 2.8 1.5.4-.3.9-.3 1.3-.4zm20.6 1.1v1.4c-.2 2-.2 4-.5 6-.3 1.8-.8 3.6-1.3 5.3-.4 1.6-.3 3.2.6 4.6 1.1 1.6 2.4 3.1 3.4 4.8 1.6 2.6 3.6 4.5 6.9 4.2.2 0 .3.1.5.1 4.7 1.1 9.1.8 13.2-2 1.4-.9 2.5-2.1 3-3.6s.7-3 1.2-4.5c.5-1.4-.2-2-1.3-2.6-4.3-2.5-8.9-4.4-13.4-6.3-2.1-.9-4.1-2-6-3.1-2.1-1.2-4.1-2.7-6.3-4.3zm-60.1 15c-.1.1-.3.2-.4.2 0 .3 0 .6.1.9.6 1.8 1.2 3.7 1.9 5.4 1.2 2.9 2.8 5.6 3.7 8.5 1 3.2 2.4 6.2 4.2 8.9 1 1.6 2.2 3 4.1 3.8-.6-1.1-1.3-2.1-2.1-3-2.5-3.1-4.5-6.4-5.5-10.2-.8-3-1.1-6-2.7-8.7-.8-1.4-1.3-2.9-2.1-4.3-.3-.6-.8-1-1.2-1.5zm50.2-43c-.8.8-1.6 1.6-2.4 2.3l-3.1 3.1c-.2.2-.5.4-.8.6 2.7.4 5.2.8 7.6 1.2-.4-2.2-.8-4.5-1.3-7.2zM95.4 125.6c-1-.4-2-.8-2.9-1.1 1.1-2.8 4.7-5.2 8.1-5.2 1.7 0 3.4.5 5.1.8 2.4.4 4.8-.6 5.9-2.9.4-.9.9-1 1.7-.9.7.1 1.3.1 2.1.2 0 .3-.1.6-.1.8-1.1 3.7-4.9 6.6-8.8 6.6-1.4 0-2.7-.5-4.1-.9-2.9-.9-5 .4-7 2.6zM41.9 11.5l3 1.2c-1.8 3.5-5.9 5.7-9.6 5.2-1.3-.2-2.5-.6-3.7-.9-2.4-.5-4.8.6-5.9 2.8-.4.9-.9 1.1-1.7 1-.7-.1-1.4-.1-2.4-.2.5-1.1.8-2.2 1.4-3 1.9-2.5 4.3-4.4 7.6-4.3 1.3 0 2.6.4 3.8.8 3.2 1 5.5-.2 7.5-2.6zM36 122.4c-.2-1-.5-2-.7-3.2 3.7-.2 6.6 1 8.7 3.9 1 1.4 1.5 3.2 2.3 4.8 1 2.3 3.2 3.7 5.6 3.4.9-.1 1.4.1 1.8.9.3.6.7 1.2 1.2 2-1.1.2-2 .6-2.9.6-3.4 0-6.5-1-8.3-4-.7-1.2-1.1-2.5-1.5-3.9-1-3-3.3-4-6.2-4.5z"/><path d="M102.9 118.7c1-4 5.5-7.1 9.4-6.7 1.3.1 2.7.2 3.9 0 2.2-.3 3.5-1.9 4.1-3.9.3-.8.6-1.2 1.4-1.2.7-.1 1.4-.2 2.3-.4-.1.7-.1 1.4-.2 2-.7 3.4-3.9 6.6-7.3 7.1-1.3.2-2.6 0-3.9-.1-2.8-.4-4.7 1-6.2 3.2-.2.3-.7.5-1 .5-.8-.1-1.6-.3-2.5-.5zM13.1 30.6c.1-1 .1-1.9.4-2.6 1.3-3.3 3.4-5.8 7.1-6.4 1.1-.2 2.4-.1 3.5.1 3.3.6 5.7-1.4 7-3.8 1 .2 2.1.4 3.2.6-.8 3.7-5.4 7.1-9.5 6.7-1.3-.1-2.6-.2-3.8 0-2.2.3-3.5 1.9-4.2 3.8-.3.8-.6 1.3-1.5 1.3-.6 0-1.3.2-2.2.3zM82.5 3.1c3.4-1.9 9.5 0 11.3 3.5.6 1.2 1 2.4 1.4 3.7.9 3 3.2 4 6.1 4.5.2.9.5 2 .7 3.2-3.7.2-6.7-1-8.8-4-1-1.4-1.5-3.2-2.2-4.8-1-2.2-3.2-3.6-5.6-3.3-.8.1-1.3-.1-1.7-.9-.3-.7-.7-1.2-1.2-1.9zM129.6 46.8c.5-1.2 1-2.2 1.4-3.2 3.4 1.8 5.3 7.8 3.4 11.3-.6 1.1-1.4 2.2-2.3 3.2-2 2.4-1.7 4.9-.4 7.7-.8.6-1.6 1.4-2.5 2.1-2.5-2.5-2.8-8.4-.2-11.4.8-.9 1.4-2 2.1-3.1.9-1.5.4-4.3-1-5.9 0-.3-.2-.5-.5-.7zM5.5 71.3c.8-.6 1.6-1.3 2.5-2.1 2.1 2.8 2.7 5.9 1.4 9.2-.6 1.5-1.7 2.9-2.6 4.3-1.8 2.8-1.5 5.3.9 7.7-.5 1-.9 2-1.4 3.1C2.6 91.3 1 85.7 2.9 82c.6-1.1 1.4-2.1 2.3-3.1 2-2.3 1.6-4.8.3-7.6z"/><path d="M130.2 53.4l-1.8 2.7c-3.1-2.3-4.2-6.9-3-10.6.4-1.1 1-2.1 1.5-3.2 1-2.3.3-4.9-1.7-6.4-.8-.5-.8-1-.6-1.8.2-.7.3-1.4.5-2.3.8.4 1.5.7 2 1.2 2.7 2.4 4.4 5.3 3.6 9.1-.3 1.3-1 2.4-1.5 3.6-1.4 3.1-1.2 5 1 7.7zM132.6 59.1c.7-.9 1.3-1.8 2-2.7 3.3 2.5 3.8 9.8.2 12.7-.6.5-1.1 1.1-1.7 1.6-2.6 2-2.7 4.6-1.9 7.5-.9.6-1.7 1.2-2.6 1.9-2-3.1-1.5-8.9 1.8-11.5.9-.7 1.7-1.7 2.5-2.6 1.4-1.7 1.3-4.5-.3-6.9zM12.3 105.1c-4.1-1.3-6.9-6.9-5.6-10.6.4-1.1 1-2.2 1.5-3.2 1.5-2.7.7-5.1-1.1-7.6.7-.8 1.3-1.8 1.9-2.7 3 2 4.6 7.7 2.6 11.2-.6 1.1-1.2 2.4-1.5 3.7-.5 2.2.5 3.9 2.1 5.3.7.6.9 1.1.6 1.9-.2.6-.3 1.2-.5 2zM127.3 96.2c1-.4 2.1-.8 3.3-1.3 0 1.2.2 2.4 0 3.4-.8 3.2-2.3 5.9-5.6 7.1-1.4.5-2.9.6-4.3.7-2.6.3-3.9 2-4.8 4.1-.3.8-.6.9-1.4.9h-2.3c.4-3.9 3.4-7.5 7-8.3 1.2-.3 2.4-.4 3.6-.6 2.6-.5 4.3-2.7 4.4-5.3.1-.2.1-.4.1-.7zM69.5 1.6C72.8-1 79-.4 81.4 2.9c.8 1.1 1.4 2.3 2.1 3.5 1.2 2.2 3.2 2.9 5.5 2.9.9 0 1.4.2 1.6 1.1.2.6.5 1.3.8 2-3.5.9-6.7.2-9.2-2.2C80.9 9 80.1 7.4 79 5.9c-1.4-2.1-4-3-6.3-2.1-.7.2-1.1.1-1.6-.5-.4-.6-1-1.1-1.6-1.7zM59.2 131l-1.8-2.7c3.3-2 7.9-1.3 10.8 1.2.9.7 1.6 1.7 2.4 2.5 2.2 2.1 4.9 2.3 7.6.4.9.6 1.8 1.3 2.8 1.9-2.7 3.2-8.9 3.8-11.9 1.1-.8-.7-1.5-1.6-2.3-2.4-2.4-2.4-4.3-2.9-7.6-2z"/><path d="M67.8 135.5c-3 2.5-9.3 2-11.8-1.2-.9-1.1-1.5-2.3-2.2-3.5-1.2-2.3-3.3-3-5.6-3-.9 0-1.3-.2-1.5-1-.2-.7-.5-1.3-.8-2 3.5-1.4 9 .5 10.8 4.1.6 1.1 1.4 2.2 2.1 3.2 1 1.4 3.8 2 5.7 1.3.7-.3 1.1-.2 1.5.3l1.8 1.8zM25.3 26c-.8 4.3-3.2 7-7.1 8.3-1.2.4-2.5.4-3.7.7-2.4.5-4.2 2.6-4.3 5 0 .8-.3 1.1-1 1.3-.8.2-1.5.6-2.2.8-1.2-3.7 1.7-9.4 5.6-10.5 1.4-.4 2.8-.5 4.2-.7 2.6-.3 3.9-2 4.9-4.1.3-.7.6-.9 1.2-.9.7.1 1.5.1 2.4.1zM80 8.8C76.9 10.9 71 10 68.6 7c-.8-1-1.8-1.8-2.7-2.7-1.3-1.1-4.3-1.1-6 0-.2.1-.4.3-.6.4-.9-.6-1.8-1.3-2.8-1.9C58.2.1 63.9-.6 66.4.5c1.7.8 2.9 2.1 4.1 3.4 2 2.4 4.4 3.1 7.3 2.3.2-.1.6.1.8.3.4.8.9 1.5 1.4 2.3zM134.3 82.4c1.8 4.1.3 9.3-3.4 11.4-1.1.6-2.3 1-3.5 1.4-3 .9-4 3.2-4.4 6.1-1 .2-2 .4-3.2.7-.2-3.6 1-6.6 3.9-8.6 1.4-1 3.2-1.6 4.8-2.3 2.3-1.1 3.7-3.4 3.2-5.9-.1-.8.1-1.1.6-1.4.6-.4 1.3-.9 2-1.4zM4.7 78.1c-.6.9-1.3 1.8-2.1 2.9-.7-1.1-1.5-2-1.9-3-1.1-3-1.2-6.1.8-8.8.8-1.1 2-2 3-2.9 2.1-2 2.6-4.4 1.6-7.2.9-.6 1.8-1.3 2.8-2 1.6 3.3 1.7 6.5-.2 9.5-.8 1.3-2 2.3-3.1 3.4-2.5 2.7-2.8 4.9-.9 8.1z"/><path d="M14.4 35.8c1-.2 2.1-.4 3.2-.7.7 3.8-2.3 8.8-6.1 9.9-1.2.3-2.3.9-3.4 1.5-1.5.8-2.7 3.4-2.3 5.4.1.8-.1 1.2-.7 1.5-.7.4-1.3.8-2 1.3-1.9-3.9-.2-9.5 3.4-11.4 1-.5 2-.9 3.1-1.2 3.1-.9 4.4-3.1 4.8-6.3zM11.2 95.4c.4-1 .8-1.9 1.2-2.9 3.4 1.3 6 6.7 4.9 10.3-.4 1.2-.6 2.6-.7 3.9-.1 2.3 1.3 3.7 3.1 4.9.3.2.6.3.9.4v3.6c-1.1-.5-2.3-.7-3.1-1.3-2.7-1.9-4.5-4.3-4.5-7.8 0-1.3.4-2.6.8-3.8 1-3.1-.4-5.2-2.6-7.3zM116.6 21.8c3.9.2 8 4.9 7.7 9.2-.1 1.1-.4 2.3-.8 3.4-1 3 .3 5.3 2.6 7.3l-1.2 3c-3.4-1.5-6-6.8-4.9-10.5.4-1.2.5-2.4.7-3.6.2-1.7-1.2-4-3.1-4.9-.9-.4-1.1-.8-1-1.7.1-.7 0-1.4 0-2.2z"/><path d="M1.9 68c-2.7-3.3-2.3-9.2.8-12 .9-.8 1.9-1.4 3-1.9 3-1.5 3.6-4.4 3.3-7 1-.4 2-.9 3-1.3 1.3 3.6-.2 8.7-4 10.9-1 .6-2 1.3-2.9 2.1-1.5 1.1-2.1 3.9-1.3 5.8.3.7.2 1-.3 1.5-.6.5-1 1.2-1.6 1.9zM25.9 111.8c4.2.6 6.9 2.9 8.3 6.7.4 1.2.5 2.6.8 3.8.6 2.5 2.6 4.3 5.1 4.4.8 0 1 .3 1.2.9.3.8.6 1.5.9 2.5-1.2 0-2.2.2-3.2 0-3.2-.7-5.9-2.3-7.2-5.5-.5-1.4-.7-2.9-.9-4.3-.3-2.6-2.1-3.9-4.2-4.8-.8-.3-1-.7-1-1.4.3-.7.2-1.5.2-2.3zM111.4 25.3c-4.2-.6-6.9-2.9-8.3-6.7-.4-1.2-.5-2.6-.8-3.8-.6-2.5-2.6-4.3-5.1-4.4-.8 0-1-.3-1.2-.9-.4-.8-.7-1.5-1-2.5 1.2 0 2.3-.2 3.3 0 3.2.8 5.8 2.3 7 5.5.5 1.4.7 2.9.9 4.3.3 2.6 2.1 3.9 4.2 4.8.8.3 1 .7 1 1.4v2.3zM128.3 90.1c-1 .4-2 .9-3 1.3-1.2-3.8.1-7.8 3.1-10.4 1-.8 2.1-1.4 3.2-2.1 2.1-1.5 2.9-4 2-6.3-.3-.7-.1-1 .3-1.5.6-.6 1-1.2 1.5-1.9.2.1.3.1.5.2.4.9 1 1.7 1.2 2.7.7 3.3.3 6.5-2.3 9-.8.8-1.9 1.4-3 2-3 1.4-3.8 3.9-3.5 7zM43.8 6.5C45.9 2.8 51.7 1 55.2 3c1.1.6 2.1 1.4 3 2.1 2.4 1.9 4.9 1.5 7.5.3.7.7 1.5 1.4 2.4 2.3-2.5 2-5.2 2.5-8.2 2C58 9.3 56.4 8 54.7 7c-2.9-1.8-5.3-1.5-7.8.9-1-.4-2-.9-3.1-1.4zM90.4 129.2c1 .4 2 .9 3.1 1.3-.2.3-.3.6-.5.8-2.5 3.1-7.1 4.4-10.7 2.7-1.2-.6-2.3-1.4-3.4-2.3-2.4-1.9-4.8-1.4-7.5-.2-.7-.7-1.5-1.4-2.4-2.3 2.5-2 5.2-2.5 8.2-2 2 .4 3.6 1.7 5.3 2.7 3 2.1 5.4 1.8 7.9-.7z"/><path d="M56.4 9.1c-2.9 3.2-6.3 4.2-10.3 3.2-1.3-.3-2.4-1-3.6-1.5-2.3-.9-4.9-.2-6.4 1.8-.5.6-.8.8-1.5.6-.8-.2-1.5-.4-2.3-.6 1-3.8 6.5-6.7 10.5-5.5 1.2.4 2.4 1 3.6 1.6 2.5 1.3 4.7.5 6.8-1 .1-.1.2-.2.4-.3.8.4 1.8 1 2.8 1.7zM83.8 129.8c-.9-.6-1.8-1.2-2.7-1.7 2.2-3.1 7.4-4.7 11.2-2.8 1.1.6 2.4 1 3.6 1.4 1.6.5 4.2-.5 5.5-2.2.2-.2.3-.5.5-.7 1.1.2 2.2.5 3.5.8-.7 1-1.2 2.1-2 2.9-2.3 2.1-5.1 3.4-8.3 2.7-1.2-.3-2.4-.8-3.5-1.4-3-1.6-5.4-.9-7.8 1zM119.7 31c-.2 1.1-.4 2.1-.6 3.3-3-.9-4.9-2.8-6.2-5.5-1-2.1-.6-4.4-.8-6.6-.1-2.5-1.8-4.7-4.3-5.2-.7-.1-1-.4-1-1-.1-.8-.3-1.6-.5-2.7 1.2.2 2.3.2 3.2.6 3 1.3 5.4 3.3 6 6.8.2 1.4.1 2.9 0 4.4-.2 2.7 1.4 4.3 3.4 5.6.4.1.6.2.8.3zM17.6 106c.2-1 .4-2 .6-3.2 3 .9 4.9 2.8 6.2 5.5 1 2.1.6 4.4.8 6.6.1 2.5 1.8 4.7 4.3 5.2.7.1 1 .3 1 1 .1.8.3 1.6.5 2.7-1.1-.2-2-.2-2.8-.5-3.3-1.3-5.8-3.3-6.4-7-.2-1.4-.1-2.9 0-4.3.2-2.7-1.4-4.4-3.5-5.7-.1-.1-.3-.1-.4-.2-.2 0-.2 0-.3-.1zM90.7 33.1c.7-.2 1.5-.4 2.1-.6-1.7-1.7-3.3-3.5-5-5.2-.8-.8-1.5-1.6-2.2-2.5-.2-.3-.3-.8-.2-1.3 3.3 3.1 6.8 5.7 9.7 9.1.7.5 2 .2 2.1 1.8-.8 0-1.6 0-2.3-.2-2.9-.7-5.4.4-8 1.2-.5.2-1.1 1-1.6.1 0-.1.8-.8 1.3-1 1.3-.5 2.7-1 4.1-1.4zM100.3 36.3c2.7 3.8 4.9 7.5 5.8 11.9-2.1-1.2-6.3-9.6-5.8-11.9zM120.9 85.3c-.2 1.1-.2 2.3-.5 3.4-.3 1-.5 1.9.1 2.9 0 0 0 .1.1.1 1.1 1.7.8 3.3-.5 4.5-.5-1.5-1.1-3.1-1.7-4.7-.3-.8-.3-1.6.3-2.2.8-.9 1.3-1.8 1.2-3 0-.4.3-.8.5-1.1.1 0 .3.1.5.1zM95.7 17.4c1.1.2 1.5.8 1.3 1.8-.4 3 .6 5.9 1.1 8.8.1.8.4 1.7-.8 2.3-.4-2.2-1-4.3-1.2-6.4-.3-2.2-.3-4.4-.4-6.5zM100.3 25.3c.2.4.4.8.5 1.2.2 1.6.8 2.3 2.3 1.8.3-.1.7 0 1.1 0 0 .1 0 .2.1.3-.3.2-.6.4-1 .6-1.2.8-2.3 1.7-2.7 3.2-.1.5-.3.9-.5 1.3-.1.2-.4.4-.6.6-.1-.3-.2-.5-.3-.8v-.4c1-2.3.9-4.6.6-7 0-.2.1-.5.2-.8h.3zM106.3 112.6c.5-1.7-.7-2.4-1.5-3.4-1.4-1.5-2-2.9-2.2-4.8h.2c1.5 1.7 2.9 3.4 4.4 5.2.9 1.1.7 2.3-.9 3zM121.1 81.3c-.7-.1-1-.1-1.3-.3-1.2-.9-2.2-4.3-1.6-5.6.1-.3.6-.4.9-.6.1.3.3.6.4.9 0 .2-.1.5-.1.7-.3 1.2-.3 2.3.7 3.3.3.3.6.9 1 1.6zM127.1 80.4c-2.5-2.4-3.1-3.7-.5-5.6-.5 2.1-.4 3.9.5 5.6zM102.7 22.8c2.5-.3 3.5 1.9 5.4 2.5-1.7.6-3.4-.2-5.4-2.5zM102.8 20.1c-.3-.1-.5-.2-.8-.3 0 .9.3 1.8-.9 2.2l-1.2-3c1.9-.5 2.3-.3 2.9 1.1zM65.2 4.7c-1.8.9-3.4 1.1-5.1.5 1.5-.9 3.1-1.2 5.1-.5zM131.9 77.5c0-1.8-.4-3.4.5-5 .9 1.6.7 3.5-.5 5zM106.9 101.2c-.8.8-1.7.4-2.4-.1-.8-.5-1.2-1.3-.8-2.3 1.2.9 2.2 1.6 3.2 2.4zM106.7 88.6h-3.4c-.2 0-.3-.6-.4-1 .3-.1.7-.3 1-.2 1 .2 1.9.6 2.9.9-.1.1-.1.2-.1.3zM103.3 91.9c-.6.9-2.6 1.2-3.2.5-.2-.2-.2-.6-.2-.8.1-.2.5-.3.7-.3.9.1 1.7.4 2.7.6zM132.7 61.4c.6 1.7.4 2.2-.6 2.5-.7-1.5-.6-2.1.6-2.5zM86.5 6.7c.6.2 1 .3 1.6.5-.2.4-.3.7-.4 1-1 0-1.5-.3-1.2-1.5zM125.8 38.6c-.8-.5-1.9-.8-1.5-2.3.6.7 1.2 1.4 1.7 2.1 0 .1-.1.2-.2.2zM77.5 5.1c-1.8.8-2.1.7-2.1-.7.7.2 1.4.4 2.1.7z"/><path d="M90.7 33c-.4-.6-.8-1.3-1.3-2 1.6 0 2 .7 1.3 2 0 .1 0 0 0 0zM72.7 4.6c.6-.1 1.1-.2 1.8-.4.1.5.1.8.2 1.5-.8-.3-1.4-.6-2-.8v-.3zM98.4 13c-.6-.5-1.2-1-2-1.6 1.6-.4 2 .4 2 1.6zM31.5 66.1c.2.3.4.7.5 1 1.6 5.1 3.1 10.2 4.8 15.3.4 1.3 1.4 2.5 2.1 3.8.1 0 .3-.1.4-.1.1-.5.2-.9.3-1.4.1 0 .2-.1.4-.1.3.7.6 1.4.8 2.2 1.1 3.1 2.1 6.3 3.3 9.4.4 1.2 1.2 2.2 2.7 2.2.2 0 .5.2.9.5-1.5.3-2.8.3-3.6-.8-.9-1.2-1.8-2.5-2.4-3.9-.7-1.4-1.1-2.9-1.6-4.4-.1-.3-.3-.6-.5-.8-2.3-1.7-3.8-4-4.7-6.6-1.2-3.8-2.3-7.7-3.3-11.6-.3-1.2-.3-2.5-.4-3.7 0-.2.1-.5.2-.7-.2-.3-.1-.3.1-.3zM25.3 55.2c.4 2.4.9 4.7 1.3 7.1.1.5-.1 1-.2 1.6-.3-.2-.5-.2-.5-.3-.6-2.2-1.2-4.4-1.7-6.6-.4-1.1.1-1.6 1.1-1.8zM53.4 76.5c2.6.2 4.7-.6 6.7-2 .2-.1.5 0 .7 0 0 .2 0 .5-.2.6-.7.4-1.3.9-2 1.2-1.1.4-2.2.8-3.4 1.1-.8.2-1.2.1-1.8-.9zM69.6 42.1c-1.2-1.2-.1-2 .3-2.7.8-1.3 1.1-1.4 2.2-.9-.8 1.1-1.6 2.3-2.5 3.6z"/></svg>
